{
  "accessors": [
    {
      "bufferView": 0,
      "componentType": 5126,
      "count": 410,
      "max": [
        28.0,
        37.0,
        30.0
      ],
      "min": [
        -28.0,
        25.0,
        -30.0
      ],
      "type": "VEC3"
    },
    {
      "bufferView": 0,
      "byteOffset": 12,
      "componentType": 5126,
      "count": 410,
      "type": "VEC3"
    },
    {
      "bufferView": 0,
      "byteOffset": 24,
      "componentType": 5126,
      "count": 410,
      "type": "VEC2"
    },
    {
      "bufferView": 1,
      "componentType": 5123,
      "count": 636,
      "type": "SCALAR"
    }
  ],
  "asset": {
    "generator": "AstraWeave Greybox Generator v1.0 - Boss Courtyard",
    "version": "2.0"
  },
  "bufferViews": [
    {
      "buffer": 0,
      "byteLength": 13120,
      "byteOffset": 0,
      "byteStride": 32,
      "target": 34962
    },
    {
      "buffer": 0,
      "byteLength": 1272,
      "byteOffset": 13120,
      "target": 34963
    }
  ],
  "buffers": [
    {
      "byteLength": 14392,
      "uri": "data:application/octet-stream;base64,"
    }
  ],
  "materials": [
    {
      "pbrMetallicRoughness": {
        "baseColorFactor": [
          0.4,
          0.35,
          0.45,
          1.0
        ],
        "metallicFactor": 0.2,
        "roughnessFactor": 0.6
      }
    }
  ],
  "meshes": [
    {
      "primitives": [
        {
          "attributes": {
            "NORMAL": 1,
            "POSITION": 0,
            "TEXCOORD_0": 2
          },
          "indices": 3,
          "material": 0
        }
      ]
    }
  ],
  "nodes": [
    {
      "mesh": 0
    }
  ],
  "scene": 0,
  "scenes": [
    {
      "nodes": [
        0
      ]
    }
  ]
}