{
  "asset": {"version": "2.0"},
  "buffers": [
    {"byteLength": 192, "uri": "data:application/octet-stream;base64,"}
  ],
  "bufferViews": [
    {"buffer": 0, "byteOffset": 0, "byteLength": 48, "target": 34962},
    {"buffer": 0, "byteOffset": 48, "byteLength": 48, "target": 34962},
    {"buffer": 0, "byteOffset": 96, "byteLength": 24, "target": 34963},
    {"buffer": 0, "byteOffset": 120, "byteLength": 72, "target": 34962}
  ],
  "accessors": [
    {"bufferView": 0, "componentType": 5126, "count": 4, "type": "VEC3", "min": [ -1, 0, -1 ], "max": [ 1, 0, 1 ]},
    {"bufferView": 1, "componentType": 5126, "count": 4, "type": "VEC3"},
    {"bufferView": 2, "componentType": 5125, "count": 6, "type": "SCALAR"},
    {"bufferView": 3, "componentType": 5126, "count": 4, "type": "VEC2"}
  ],
  "meshes": [
    {"primitives": [
      {"attributes": {"POSITION": 0, "NORMAL": 1, "TEXCOORD_0": 3}, "indices": 2, "material": 0}
    ]}
  ],
  "materials": [
    {"pbrMetallicRoughness": {"baseColorFactor": [1.0, 1.0, 1.0, 1.0], "metallicFactor": 0.1, "roughnessFactor": 0.7}}
  ]
}
